<?xml version="1.0" encoding="UTF-8" standalone="no"?>
<!-- Created with Inkscape (http://www.inkscape.org/) -->

<svg
   xmlns:dc="http://purl.org/dc/elements/1.1/"
   xmlns:cc="http://creativecommons.org/ns#"
   xmlns:rdf="http://www.w3.org/1999/02/22-rdf-syntax-ns#"
   xmlns:svg="http://www.w3.org/2000/svg"
   xmlns="http://www.w3.org/2000/svg"
   xmlns:sodipodi="http://sodipodi.sourceforge.net/DTD/sodipodi-0.dtd"
   xmlns:inkscape="http://www.inkscape.org/namespaces/inkscape"
   width="512"
   height="512"
   id="svg2"
   version="1.1"
   inkscape:version="0.48.4 r9939"
   sodipodi:docname="circle_house_red.svg">
  <defs
     id="defs4" />
  <sodipodi:namedview
     id="base"
     pagecolor="#ffffff"
     bordercolor="#666666"
     borderopacity="1.0"
     inkscape:pageopacity="0.0"
     inkscape:pageshadow="2"
     inkscape:zoom="0.98994949"
     inkscape:cx="172.61689"
     inkscape:cy="330.97126"
     inkscape:document-units="px"
     inkscape:current-layer="layer1"
     showgrid="false"
     inkscape:window-width="1920"
     inkscape:window-height="1137"
     inkscape:window-x="1912"
     inkscape:window-y="-8"
     inkscape:window-maximized="1" />
  <metadata
     id="metadata7">
    <rdf:RDF>
      <cc:Work
         rdf:about="">
        <dc:format>image/svg+xml</dc:format>
        <dc:type
           rdf:resource="http://purl.org/dc/dcmitype/StillImage" />
        <dc:title></dc:title>
      </cc:Work>
    </rdf:RDF>
  </metadata>
  <g
     inkscape:label="Layer 1"
     inkscape:groupmode="layer"
     id="layer1"
     transform="translate(0,-540.36218)">
    <g
       id="g3010">
      <path
         transform="matrix(0.9627265,0,0,0.97061772,5.0948403,546.48484)"
         d="m 509.11688,257.44156 a 248.49753,246.47722 0 1 1 -496.995054,0 248.49753,246.47722 0 1 1 496.995054,0 z"
         sodipodi:ry="246.47722"
         sodipodi:rx="248.49753"
         sodipodi:cy="257.44156"
         sodipodi:cx="260.61935"
         id="path2985"
         style="fill:#ffffff;fill-opacity:1;fill-rule:evenodd;stroke:#d40000;stroke-width:26.89662361;stroke-miterlimit:4;stroke-opacity:1;stroke-dasharray:none"
         sodipodi:type="arc" />
      <g
         transform="matrix(0.99231499,0,0,0.98836368,-91.810606,669.84334)"
         id="g3828">
        <g
           id="g4"
           transform="matrix(8.9502382,-1.9407734,1.8291196,9.4491881,213.39384,30.091982)"
           style="fill:#d40000;stroke:#000000;stroke-width:0.21305262;stroke-miterlimit:4;stroke-dasharray:none">
          <g
             id="g6"
             style="fill:#d40000;stroke:#000000;stroke-width:0.21305262;stroke-miterlimit:4;stroke-dasharray:none">
            <path
               style="font-size:medium;font-style:normal;font-variant:normal;font-weight:normal;font-stretch:normal;text-indent:0;text-align:start;text-decoration:none;line-height:normal;letter-spacing:normal;word-spacing:normal;text-transform:none;direction:ltr;block-progression:tb;writing-mode:lr-tb;text-anchor:start;baseline-shift:baseline;color:#000000;fill:#d40000;fill-opacity:1;fill-rule:nonzero;stroke:#000000;stroke-width:0.21305262;stroke-miterlimit:4;stroke-dasharray:none;marker:none;visibility:visible;display:inline;overflow:visible;enable-background:accumulate;font-family:Sans;-inkscape-font-specification:Sans"
               d="m 16.046989,0.05837343 c -0.35241,-0.07348659 -0.699664,-0.11220869 -1.045476,-0.11220872 -0.0355,-4e-8 -0.07482,0.0035157 -0.110363,0.010404 -10e-4,2.0192e-4 -0.0023,-8.9703e-4 -0.0034,-6.8824e-4 l -6.49e-4,0.0031739 c -0.0014,4.3035e-4 -0.0022,-0.0011351 -0.0034,-6.8824e-4 -0.02169,0.0045651 -0.03474,0.0126864 -0.0414,0.01464694 -0.03516,0.01023275 -0.07132,0.02242523 -0.106149,0.04103415 -0.01817,0.0097131 -0.03304,0.01966575 -0.04799,0.02982839 -0.02844,0.0192195 -0.05805,0.04292112 -0.08388,0.06875761 C 13.32352,1.3934867 12.593376,3.2383057 12.994514,5.2222654 L 9.4430148,8.7789036 C 8.740084,8.3653214 7.6443246,8.1095741 6.4822463,8.1807114 5.2996152,8.2531071 4.0488478,8.6672988 3.1029952,9.6131508 2.7321421,9.9840036 2.5579575,10.431505 2.537957,10.925791 c -0.02,0.494287 0.1151026,1.032986 0.357747,1.59808 0.4807779,1.119683 1.389359,2.340823 2.4086603,3.487698 l -5.25611759,7.165199 c -0.16073087,0.219078 -0.13254952,0.520742 0.06018928,0.713481 0.1076529,0.106543 0.24979223,0.163313 0.39259067,0.163313 0.11557898,0 0.22922155,-0.03803 0.32590421,-0.108342 L 7.9895483,18.692893 c 1.6871148,1.499114 3.5224877,2.766962 4.9860567,2.766963 0.535346,0 1.024721,-0.177233 1.419172,-0.571685 0.9455,-0.945501 1.359353,-2.189816 1.432433,-3.370128 0.07197,-1.162361 -0.188357,-2.259011 -0.602867,-2.961368 l 3.558201,-3.555262 c 0.367704,0.07416 0.727863,0.113431 1.083633,0.113431 1.563654,0 2.985662,-0.683012 4.029223,-1.7255647 0.02672,-0.026718 0.04635,-0.053359 0.06572,-0.082409 0.01908,-0.028755 0.03674,-0.060079 0.05027,-0.092198 0.008,-0.018854 0.0076,-0.019894 6.49e-4,-0.00317 0.01275,-0.030819 0.02353,-0.064333 0.03081,-0.099501 1.72e-4,-8.417e-4 3.62e-4,-0.00173 6.49e-4,-0.00317 0.0071,-0.035359 0.01135,-0.070596 0.01135,-0.1068047 0,-1.8406051 -1.04041,-3.7692438 -3.163845,-5.8916759 C 19.165745,1.3859 17.574636,0.37692726 16.046989,0.05837343 z m -0.2681,0.97015577 C 15.712229,1.0152962 15.645225,1.0041052 15.57989,0.994271 l -0.07772,-0.0126555 0.01654,0.0728468 c 0.280968,1.2281566 1.349953,3.1791281 2.79755,4.625864 1.448561,1.4476993 3.400757,2.515721 4.630861,2.7965313 l 0.07642,0.019003 -0.01254,-0.075333 C 22.800592,7.0254815 21.848169,5.4824193 20.184162,3.8184123 18.597749,2.2319982 17.123779,1.2954926 15.778892,1.0285292 z m -1.059547,0.5033411 -0.06497,0.095793 c -1.084595,1.6513285 -1.290525,4.103275 1.160319,6.5549983 1.226839,1.2268397 2.453764,1.790711 3.583027,1.9099624 1.129263,0.119251 2.158601,-0.2054042 2.984801,-0.7495013 l 0.08929,-0.061033 -0.105282,-0.031545 C 20.906036,8.8063072 19.022813,7.6563642 17.68325,6.3175735 16.345314,4.9804087 15.197852,3.106005 14.752205,1.6444481 l -0.03286,-0.1125778 z m -1.308053,4.692082 -0.06118,0.060191 -3.5369059,3.5364854 c -0.066864,0.066864 -0.094809,0.1784287 -0.088861,0.3323083 0.00595,0.153879 0.050109,0.349836 0.1517476,0.590078 0.2032763,0.480483 0.6336113,1.132886 1.4401843,1.93946 0.806567,0.806567 1.455839,1.236076 1.936886,1.439574 0.240525,0.101749 0.438197,0.149012 0.593321,0.154934 0.155124,0.0059 0.27302,-0.02549 0.340064,-0.0922 l 6.48e-4,-0.0032 3.536907,-3.536486 0.05253,-0.05204 -0.07383,-0.0317 C 16.865355,10.212183 16.015923,9.6476581 15.185688,8.817423 14.35565,7.9873842 13.790671,7.1376327 13.441236,6.2995521 l -0.02994,-0.0756 z M 7.8438696,9.257402 C 6.6557866,9.0266828 4.9814359,9.1470291 3.810988,10.317476 c -0.2284601,0.228461 -0.3058997,0.559141 -0.2527474,0.963387 0.053152,0.404246 0.2367828,0.886234 0.5414019,1.434064 0.6092384,1.095658 1.7026194,2.454678 3.2149157,3.967475 1.5128064,1.512806 2.8738178,2.604354 3.9696428,3.21302 0.547913,0.304332 1.026943,0.489083 1.432439,0.542246 0.405496,0.05316 0.742575,-0.02904 0.970793,-0.256997 0.789409,-0.78941 1.09945,-1.806114 1.148023,-2.747267 0.04857,-0.941153 -0.162113,-1.80548 -0.429935,-2.304103 l -0.02302,-0.04111 -0.04475,0.01396 c -0.135525,0.04343 -0.284581,0.06949 -0.450643,0.06949 -0.751457,0 -1.835098,-0.485846 -3.200486,-1.851235 C 9.0180925,11.651885 8.6606151,10.408329 8.8992822,9.662682 L 8.9110655,9.622109 8.8734495,9.6011544 C 8.6148734,9.4620972 8.2589537,9.3380083 7.8438696,9.257402 z m -1.787626,7.414592 -0.039131,0.0548 -3.2393485,4.421084 0.080095,0.06936 0.012647,-0.01063 4.4062928,-3.228942 0.048643,-0.033 -0.043777,-0.04206 C 7.078564,17.708838 6.8791304,17.514569 6.6848979,17.320338 6.4909262,17.126366 6.2958469,16.924185 6.1020744,16.721093 l -0.04583,-0.0491 z"
               id="path8"
               inkscape:connector-curvature="0"
               sodipodi:nodetypes="ssccccccccccsssscccsccsssccsccccccsssccccscccscccccscccscccccccsssccccccscccsssscsscscccsscccsccccccccsccc" />
          </g>
          <g
             id="g10"
             style="fill:#d40000;stroke:#000000;stroke-width:0.21305262;stroke-miterlimit:4;stroke-dasharray:none" />
          <g
             id="g14"
             style="fill:#d40000;stroke:#000000;stroke-width:0.21305262;stroke-miterlimit:4;stroke-dasharray:none" />
          <g
             id="g18"
             style="fill:#d40000;stroke:#000000;stroke-width:0.21305262;stroke-miterlimit:4;stroke-dasharray:none" />
          <g
             id="g22"
             style="fill:#d40000;stroke:#000000;stroke-width:0.21305262;stroke-miterlimit:4;stroke-dasharray:none" />
        </g>
        <path
           style="fill:#cccccc;stroke:none"
           d="m 276.93749,224.53125 21.03125,-48.35938 0.125,-0.29689 4.84963,3.52328 5.0622,3.51256 3.77566,2.52666 -33.95313,39.53122 z"
           id="path3808"
           inkscape:connector-curvature="0" />
      </g>
    </g>
  </g>
</svg>
