<?xml version="1.0" encoding="UTF-8" standalone="no"?>
<!-- Created with Inkscape (http://www.inkscape.org/) -->

<svg
   xmlns:dc="http://purl.org/dc/elements/1.1/"
   xmlns:cc="http://creativecommons.org/ns#"
   xmlns:rdf="http://www.w3.org/1999/02/22-rdf-syntax-ns#"
   xmlns:svg="http://www.w3.org/2000/svg"
   xmlns="http://www.w3.org/2000/svg"
   xmlns:sodipodi="http://sodipodi.sourceforge.net/DTD/sodipodi-0.dtd"
   xmlns:inkscape="http://www.inkscape.org/namespaces/inkscape"
   width="512"
   height="512"
   id="svg2"
   version="1.1"
   inkscape:version="0.48.4 r9939"
   sodipodi:docname="circle_minus.svg">
  <defs
     id="defs4" />
  <sodipodi:namedview
     id="base"
     pagecolor="#ffffff"
     bordercolor="#666666"
     borderopacity="1.0"
     inkscape:pageopacity="0.0"
     inkscape:pageshadow="2"
     inkscape:zoom="0.98994949"
     inkscape:cx="261.24849"
     inkscape:cy="259.69139"
     inkscape:document-units="px"
     inkscape:current-layer="layer1"
     showgrid="false"
     inkscape:window-width="1920"
     inkscape:window-height="1137"
     inkscape:window-x="1912"
     inkscape:window-y="-8"
     inkscape:window-maximized="1" />
  <metadata
     id="metadata7">
    <rdf:RDF>
      <cc:Work
         rdf:about="">
        <dc:format>image/svg+xml</dc:format>
        <dc:type
           rdf:resource="http://purl.org/dc/dcmitype/StillImage" />
        <dc:title></dc:title>
      </cc:Work>
    </rdf:RDF>
  </metadata>
  <g
     inkscape:label="Layer 1"
     inkscape:groupmode="layer"
     id="layer1"
     transform="translate(0,-540.36218)">
    <g
       id="g3960">
      <path
         transform="matrix(0.9627265,0,0,0.97061772,5.0948403,546.48484)"
         d="m 509.11688,257.44156 a 248.49753,246.47722 0 1 1 -496.995054,0 248.49753,246.47722 0 1 1 496.995054,0 z"
         sodipodi:ry="246.47722"
         sodipodi:rx="248.49753"
         sodipodi:cy="257.44156"
         sodipodi:cx="260.61935"
         id="path2985"
         style="fill:#ffffff;fill-opacity:1;fill-rule:evenodd;stroke:#ff00ff;stroke-width:26.89662360999999900;stroke-miterlimit:4;stroke-opacity:1;stroke-dasharray:none"
         sodipodi:type="arc" />
      <g
         style="fill:#ff00ff;fill-opacity:1"
         transform="matrix(2.5630283,0,0,2.9459134,127.84803,649.06567)"
         id="g3952">
        <g
           style="fill:#ff00ff;fill-opacity:1"
           id="g3934">
          <path
             style="fill:#ff00ff;fill-opacity:1"
             inkscape:connector-curvature="0"
             d="m 89.803,56.948 c -6.868,6.801 -8.605,4.073 -9.09,3.231 C 79.669,58.362 79.411,55.444 79.411,55.444 77.451,34.512 60.533,18.887 40.197,16.42 c -2.935,-0.357 -5.674,-0.679 -9.579,0.197 -2.144,0.48 -5.319,2.02 -6.8,4.04 22.175,1.302 39.576,15.835 41.154,38.108 0.079,1.114 0.221,3.817 -0.789,5.59 -0.909,1.381 -1.588,2.962 -15.856,3.973 -2.226,0.157 -6.575,0.19 -9.359,0.067 C 22.202,67.654 8.938,62.739 2.07,59.777 c 0,0 31.512,28.886 72.987,23.499 42.656,-5.541 14.746,-26.328 14.746,-26.328 z"
             id="path3936" />
          <path
             style="fill:#ff00ff;fill-opacity:1"
             inkscape:connector-curvature="0"
             d="m 3.256,57.352 c 7.856,2.684 21.007,7.176 36.808,7.801 0.703,0.022 1.651,0.084 2.471,0.084 2.111,0 4.337,-0.069 6.088,-0.193 9.177,-0.65 10.099,-1.04 11.089,-1.329 1.861,-0.557 2.237,-2.297 2.147,-3.567 C 60.438,40.108 45.19,26.098 23.341,23.652 l -3.29,-0.188 C 9.981,29.354 1.007,43.439 1.234,56.665 l 0.097,0.034 c 0.601,0.2 1.243,0.419 1.925,0.653 z"
             id="path3938" />
          <path
             style="fill:#ff00ff;fill-opacity:1"
             inkscape:connector-curvature="0"
             d="M 88.636,54.174 C 88.624,53.928 88.61,53.177 88.592,52.93 87.476,37.19 75.128,23.723 56.877,19.985 c 14.723,5.834 24.19,20.211 25.677,36.09 0,0 0.147,3.225 1.948,1.71 0.003,-10e-4 0.003,-10e-4 0.003,-10e-4 0.696,-0.482 1.594,-1.347 2.403,-2.043 l 1.728,-1.567 z"
             id="path3940" />
        </g>
      </g>
    </g>
  </g>
</svg>
