<?xml version="1.0" encoding="UTF-8" standalone="no"?>
<!-- The icon can be used freely in both personal and commercial projects with no attribution required, but always appreciated. 
You may NOT sub-license, resell, rent, redistribute or otherwise transfer the icon without express written permission from iconmonstr.com -->

<svg
   xmlns:dc="http://purl.org/dc/elements/1.1/"
   xmlns:cc="http://creativecommons.org/ns#"
   xmlns:rdf="http://www.w3.org/1999/02/22-rdf-syntax-ns#"
   xmlns:svg="http://www.w3.org/2000/svg"
   xmlns="http://www.w3.org/2000/svg"
   xmlns:sodipodi="http://sodipodi.sourceforge.net/DTD/sodipodi-0.dtd"
   xmlns:inkscape="http://www.inkscape.org/namespaces/inkscape"
   version="1.1"
   x="0px"
   y="0px"
   width="512px"
   height="512px"
   viewBox="0 0 512 512"
   enable-background="new 0 0 512 512"
   xml:space="preserve"
   id="svg2994"
   inkscape:version="0.48.4 r9939"
   sodipodi:docname="pin-house-yellow.svg"><metadata
   id="metadata3001"><rdf:RDF><cc:Work
       rdf:about=""><dc:format>image/svg+xml</dc:format><dc:type
         rdf:resource="http://purl.org/dc/dcmitype/StillImage" /><dc:title></dc:title></cc:Work></rdf:RDF></metadata><defs
   id="defs2999" /><sodipodi:namedview
   pagecolor="#cdffff"
   bordercolor="#666666"
   borderopacity="1"
   objecttolerance="10"
   gridtolerance="10"
   guidetolerance="10"
   inkscape:pageopacity="0"
   inkscape:pageshadow="2"
   inkscape:window-width="1920"
   inkscape:window-height="1137"
   id="namedview2997"
   showgrid="true"
   inkscape:zoom="1.3120145"
   inkscape:cx="140.0946"
   inkscape:cy="330.47823"
   inkscape:window-x="1912"
   inkscape:window-y="-8"
   inkscape:window-maximized="1"
   inkscape:current-layer="g3856"
   showguides="false"
   inkscape:guide-bbox="true"
   inkscape:snap-global="false"><inkscape:grid
     type="xygrid"
     id="grid3794"
     empspacing="5"
     visible="true"
     enabled="true"
     snapvisiblegridlinesonly="true" /></sodipodi:namedview>

<g
   id="g3856"
   transform="translate(112.2757,284.99587)"><g
     id="g3872"><path
       sodipodi:type="arc"
       style="fill:#ffffff;fill-opacity:1;fill-rule:evenodd;stroke:none"
       id="path3753"
       sodipodi:cx="256.09473"
       sodipodi:cy="107.65996"
       sodipodi:rx="100.60864"
       sodipodi:ry="97.940994"
       d="m 356.70337,107.65996 a 100.60864,97.940994 0 1 1 -201.21729,0 100.60864,97.940994 0 1 1 201.21729,0 z"
       transform="matrix(0.97419687,0,0,1.0007314,-105.76238,-288.94454)" /><path
       transform="translate(-112.2757,-284.99587)"
       style="fill:#ff00ff;fill-opacity:1;stroke:#000000;stroke-width:2;stroke-miterlimit:4;stroke-opacity:1;stroke-dasharray:none"
       d="M 256,1e-6 C 198.00947,1e-6 151,46.875341 151,104.69903 151,163.41748 202.0543,202.14866 256,256 309.9457,202.14866 361,163.41748 361,104.69903 361,46.875341 313.99053,1e-6 256,1e-6 z M 256,178.304 c -42.54525,0 -77.03573,-34.39161 -77.03573,-76.81491 0,-42.423924 34.49048,-76.815536 77.03573,-76.815536 42.54588,0 77.03635,34.39099 77.03635,76.815536 0,42.4233 -34.49047,76.81491 -77.03635,76.81491 z"
       id="location-5-icon"
       inkscape:connector-curvature="0" /><g
       style="fill:#ff00ff;stroke:#000000"
       transform="matrix(1.0252113,0,0,1.0252113,92.463511,-239.91863)"
       id="g3864"><g
         style="fill:#ff00ff;stroke:#000000"
         id="g3838"><path
           style="fill:#ff00ff;stroke:#000000"
           id="path3840"
           d="m 89.803,56.948 c -6.868,6.801 -8.605,4.073 -9.09,3.231 C 79.669,58.362 79.411,55.444 79.411,55.444 77.451,34.512 60.533,18.887 40.197,16.42 c -2.935,-0.357 -5.674,-0.679 -9.579,0.197 -2.144,0.48 -5.319,2.02 -6.8,4.04 22.175,1.302 39.576,15.835 41.154,38.108 0.079,1.114 0.221,3.817 -0.789,5.59 -0.909,1.381 -1.588,2.962 -15.856,3.973 -2.226,0.157 -6.575,0.19 -9.359,0.067 C 22.202,67.654 8.938,62.739 2.07,59.777 c 0,0 31.512,28.886 72.987,23.499 42.656,-5.541 14.746,-26.328 14.746,-26.328 z"
           inkscape:connector-curvature="0" /><path
           style="fill:#ff00ff;stroke:#000000"
           id="path3842"
           d="m 3.256,57.352 c 7.856,2.684 21.007,7.176 36.808,7.801 0.703,0.022 1.651,0.084 2.471,0.084 2.111,0 4.337,-0.069 6.088,-0.193 9.177,-0.65 10.099,-1.04 11.089,-1.329 1.861,-0.557 2.237,-2.297 2.147,-3.567 C 60.438,40.108 45.19,26.098 23.341,23.652 l -3.29,-0.188 C 9.981,29.354 1.007,43.439 1.234,56.665 l 0.097,0.034 c 0.601,0.2 1.243,0.419 1.925,0.653 z"
           inkscape:connector-curvature="0" /><path
           style="fill:#ff00ff;stroke:#000000"
           id="path3844"
           d="M 88.636,54.174 C 88.624,53.928 88.61,53.177 88.592,52.93 87.476,37.19 75.128,23.723 56.877,19.985 c 14.723,5.834 24.19,20.211 25.677,36.09 0,0 0.147,3.225 1.948,1.71 0.003,-10e-4 0.003,-10e-4 0.003,-10e-4 0.696,-0.482 1.594,-1.347 2.403,-2.043 l 1.728,-1.567 z"
           inkscape:connector-curvature="0" /></g></g></g></g></svg>