<?xml version="1.0" encoding="UTF-8" standalone="no"?>
<!-- The icon can be used freely in both personal and commercial projects with no attribution required, but always appreciated. 
You may NOT sub-license, resell, rent, redistribute or otherwise transfer the icon without express written permission from iconmonstr.com -->

<svg
   xmlns:dc="http://purl.org/dc/elements/1.1/"
   xmlns:cc="http://creativecommons.org/ns#"
   xmlns:rdf="http://www.w3.org/1999/02/22-rdf-syntax-ns#"
   xmlns:svg="http://www.w3.org/2000/svg"
   xmlns="http://www.w3.org/2000/svg"
   xmlns:xlink="http://www.w3.org/1999/xlink"
   xmlns:sodipodi="http://sodipodi.sourceforge.net/DTD/sodipodi-0.dtd"
   xmlns:inkscape="http://www.inkscape.org/namespaces/inkscape"
   version="1.1"
   x="0px"
   y="0px"
   width="512px"
   height="512px"
   viewBox="0 0 512 512"
   enable-background="new 0 0 512 512"
   xml:space="preserve"
   id="svg2994"
   inkscape:version="0.48.4 r9939"
   sodipodi:docname="pin-house-blue.svg"><metadata
   id="metadata3001"><rdf:RDF><cc:Work
       rdf:about=""><dc:format>image/svg+xml</dc:format><dc:type
         rdf:resource="http://purl.org/dc/dcmitype/StillImage" /><dc:title /></cc:Work></rdf:RDF></metadata><defs
   id="defs2999"><linearGradient
     inkscape:collect="always"
     id="linearGradient4535"><stop
       style="stop-color:#000000;stop-opacity:1;"
       offset="0"
       id="stop4537" /><stop
       style="stop-color:#000000;stop-opacity:0;"
       offset="1"
       id="stop4539" /></linearGradient><linearGradient
     id="linearGradient4527"><stop
       style="stop-color:#000000;stop-opacity:1;"
       offset="0"
       id="stop4529" /><stop
       style="stop-color:#000000;stop-opacity:0;"
       offset="1"
       id="stop4531" /></linearGradient><linearGradient
     inkscape:collect="always"
     xlink:href="#linearGradient4535"
     id="linearGradient4541"
     x1="150"
     y1="128"
     x2="362"
     y2="128"
     gradientUnits="userSpaceOnUse" /></defs><sodipodi:namedview
   pagecolor="#ffffff"
   bordercolor="#666666"
   borderopacity="1"
   objecttolerance="10"
   gridtolerance="10"
   guidetolerance="10"
   inkscape:pageopacity="0"
   inkscape:pageshadow="2"
   inkscape:window-width="1920"
   inkscape:window-height="1137"
   id="namedview2997"
   showgrid="true"
   inkscape:zoom="2.624029"
   inkscape:cx="164.76066"
   inkscape:cy="351.448"
   inkscape:window-x="-8"
   inkscape:window-y="-8"
   inkscape:window-maximized="1"
   inkscape:current-layer="svg2994"
   showguides="false"
   inkscape:guide-bbox="true"
   inkscape:snap-global="false"><inkscape:grid
     type="xygrid"
     id="grid3794" /></sodipodi:namedview>

<g
   id="g3051"><path
     transform="matrix(0.93163716,0,0,0.95711274,19.289445,4.2118341)"
     d="m 355,104.5 a 100,97.5 0 1 1 -200,0 100,97.5 0 1 1 200,0 z"
     sodipodi:ry="97.5"
     sodipodi:rx="100"
     sodipodi:cy="104.5"
     sodipodi:cx="255"
     id="path2983"
     style="fill:#ffffff;fill-opacity:1;fill-rule:evenodd;stroke:none"
     sodipodi:type="arc" /><g
     style="fill-opacity:1;fill:#34369a"
     id="g4543"><g
       id="g4524"
       style="fill-opacity:1;fill:#34369a"><path
         style="fill:#34369a;fill-opacity:1;stroke-width:2;stroke-miterlimit:4;stroke-dasharray:none;marker-start:none;stroke:#000000"
         d="M 256,1e-6 C 198.00947,1e-6 151,46.875341 151,104.69903 151,163.41748 202.0543,202.14866 256,256 309.9457,202.14866 361,163.41748 361,104.69903 361,46.875341 313.99053,1e-6 256,1e-6 z M 256,178.304 c -42.54525,0 -77.03573,-34.39161 -77.03573,-76.81491 0,-42.423924 34.49048,-76.815536 77.03573,-76.815536 42.54588,0 77.03635,34.39099 77.03635,76.815536 0,42.4233 -34.49047,76.81491 -77.03635,76.81491 z"
         id="location-5-icon"
         inkscape:connector-curvature="0" /></g><path
       style="fill:#34369a;fill-opacity:1;stroke:#000000;stroke-width:2;stroke-miterlimit:4;stroke-dasharray:none"
       d="m 296.69364,98.50222 v 40.89274 h -29.30379 v -22.22354 h -22.07054 v 22.22354 H 216.01553 V 98.50222 h -10.4879 l 50.82708,-50.642758 50.82707,50.643007 h -10.48814 z m -6.27197,-46.091277 h -11.82272 v 9.42551 l 11.82272,11.814915 V 52.410943 z"
       id="home-4-icon"
       inkscape:connector-curvature="0" /></g></g></svg>