<?xml version="1.0" encoding="UTF-8" standalone="no"?>
<svg
   xmlns:dc="http://purl.org/dc/elements/1.1/"
   xmlns:cc="http://creativecommons.org/ns#"
   xmlns:rdf="http://www.w3.org/1999/02/22-rdf-syntax-ns#"
   xmlns:svg="http://www.w3.org/2000/svg"
   xmlns="http://www.w3.org/2000/svg"
   xmlns:sodipodi="http://sodipodi.sourceforge.net/DTD/sodipodi-0.dtd"
   xmlns:inkscape="http://www.inkscape.org/namespaces/inkscape"
   version="1.1"
   x="0px"
   y="0px"
   viewBox="0 0 512 512"
   enable-background="new 0 0 100 100"
   xml:space="preserve"
   id="svg2"
   inkscape:version="0.48.4 r9939"
   width="100%"
   height="100%"
   sodipodi:docname="sq_pin-house-yellow.svg"><metadata
     id="metadata16"><rdf:RDF><cc:Work
         rdf:about=""><dc:format>image/svg+xml</dc:format><dc:type
           rdf:resource="http://purl.org/dc/dcmitype/StillImage" /><dc:title></dc:title></cc:Work></rdf:RDF></metadata><defs
     id="defs14" /><sodipodi:namedview
     pagecolor="#ffffff"
     bordercolor="#666666"
     borderopacity="1"
     objecttolerance="10"
     gridtolerance="10"
     guidetolerance="10"
     inkscape:pageopacity="0"
     inkscape:pageshadow="2"
     inkscape:window-width="1920"
     inkscape:window-height="1137"
     id="namedview12"
     showgrid="false"
     inkscape:object-paths="true"
     inkscape:snap-intersection-paths="true"
     inkscape:object-nodes="true"
     inkscape:snap-smooth-nodes="true"
     inkscape:zoom="1.3350176"
     inkscape:cx="211.18933"
     inkscape:cy="339.01056"
     inkscape:window-x="1912"
     inkscape:window-y="-8"
     inkscape:window-maximized="1"
     inkscape:current-layer="svg2" /><g
     id="g3814"><path
       sodipodi:nodetypes="scssccsccsssss"
       inkscape:connector-curvature="0"
       id="path6"
       d="m 176.78562,0.97956998 c -13.64096,0 -24.80899,10.92741602 -24.80605,24.38571402 l 0,155.853856 c 0,13.4605 11.16312,24.41639 24.80605,24.41639 l 31.37415,0 44.602,48.06592 c 0.78765,0.84796 1.89866,1.31898 3.05493,1.31898 1.15628,0 2.2798,-0.4516 3.08549,-1.31898 l 44.602,-48.06592 31.71019,0 c 13.64312,0 24.80605,-10.95847 24.80605,-24.41639 l 0,-155.853856 c 0,-13.458538 -11.17295,-24.38571402 -24.80605,-24.38571402 z"
       style="font-size:medium;font-style:normal;font-variant:normal;font-weight:normal;font-stretch:normal;text-indent:0;text-align:start;text-decoration:none;line-height:normal;letter-spacing:normal;word-spacing:normal;text-transform:none;direction:ltr;block-progression:tb;writing-mode:lr-tb;text-anchor:start;baseline-shift:baseline;color:#000000;fill:#000000;fill-opacity:1;fill-rule:nonzero;stroke:#000000;stroke-width:2;stroke-miterlimit:4;stroke-dasharray:none;marker:none;visibility:visible;display:inline;overflow:visible;enable-background:accumulate;font-family:Sans;-inkscape-font-specification:Sans" /><path
       style="fill:#ffffff"
       inkscape:connector-curvature="0"
       id="tools-2-icon"
       d="M 313.8746,142.03822 249.29101,77.453951 c -3.10549,-3.10481 -4.70496,-7.42341 -4.36583,-11.80182 0.64122,-8.29433 -2.20874,-16.8075 -8.55258,-23.151 -8.2573,-8.25729 -20.19028,-10.59584 -30.53194,-7.01972 l 18.77565,18.77566 c 0.43088,7.3252 -10.89487,18.65027 -18.21939,18.21939 L 187.6216,53.701151 c -3.57612,10.34132 -1.23791,22.27464 7.01938,30.53193 6.3435,6.34385 14.85701,9.19312 23.15134,8.55191 4.38215,-0.33913 8.69361,1.25762 11.80182,4.36549 l 64.58427,64.584269 c 5.43894,5.43928 14.25657,5.43928 19.69619,0 5.43894,-5.43928 5.43894,-14.25759 0,-19.69653 z m -10.5272,14.73842 c -3.16971,0 -5.74035,-2.56962 -5.74035,-5.74035 0,-3.16971 2.5703,-5.74001 5.74035,-5.74001 3.17005,0 5.74035,2.56996 5.74035,5.74001 0,3.17073 -2.57063,5.74035 -5.74035,5.74035 z m -40.4152,-79.948619 33.3017,-33.3017 c 6.80938,-6.80971 17.84968,-6.80971 24.65906,0 6.80938,6.80972 6.80938,17.84969 0,24.65907 l -33.3017,33.301699 -6.03768,-6.037339 31.7899,-31.7899 c 0.9817,-0.98102 0.9817,-2.57165 0,-3.55336 -0.98102,-0.98068 -2.57165,-0.98068 -3.55335,3.4e-4 l -31.7899,31.78991 -5.1688,-5.1688 31.78923,-31.79024 c 0.9817,-0.98102 0.9817,-2.57165 6.8e-4,-3.55301 -0.98103,-0.98136 -2.57166,-0.98136 -3.55336,0 l -31.7899,31.78956 -6.34588,-6.34623 z m -17.49527,50.432359 -24.57615,24.57649 c -1.33239,1.33204 -2.45375,2.85913 -3.32637,4.52928 l -1.76597,3.38107 -12.24152,6.25278 -4.84326,-4.84326 5.98874,-12.50657 3.38074,-1.76563 c 1.67014,-0.87195 3.19757,-1.99399 4.52927,-3.32637 l 24.5765,-24.57615 8.27802,8.27836 z" /></g></svg>