<?xml version="1.0" encoding="UTF-8" standalone="no"?>
<svg
   xmlns:dc="http://purl.org/dc/elements/1.1/"
   xmlns:cc="http://creativecommons.org/ns#"
   xmlns:rdf="http://www.w3.org/1999/02/22-rdf-syntax-ns#"
   xmlns:svg="http://www.w3.org/2000/svg"
   xmlns="http://www.w3.org/2000/svg"
   xmlns:sodipodi="http://sodipodi.sourceforge.net/DTD/sodipodi-0.dtd"
   xmlns:inkscape="http://www.inkscape.org/namespaces/inkscape"
   version="1.1"
   x="0px"
   y="0px"
   viewBox="0 0 512 512"
   enable-background="new 0 0 100 100"
   xml:space="preserve"
   id="svg2"
   inkscape:version="0.48.4 r9939"
   width="100%"
   height="100%"
   sodipodi:docname="sq_pin-traflight-white.svg"><metadata
     id="metadata16"><rdf:RDF><cc:Work
         rdf:about=""><dc:format>image/svg+xml</dc:format><dc:type
           rdf:resource="http://purl.org/dc/dcmitype/StillImage" /><dc:title /></cc:Work></rdf:RDF></metadata><defs
     id="defs14" /><sodipodi:namedview
     pagecolor="#ffffff"
     bordercolor="#666666"
     borderopacity="1"
     objecttolerance="10"
     gridtolerance="10"
     guidetolerance="10"
     inkscape:pageopacity="0"
     inkscape:pageshadow="2"
     inkscape:window-width="1920"
     inkscape:window-height="1137"
     id="namedview12"
     showgrid="false"
     inkscape:object-paths="true"
     inkscape:snap-intersection-paths="true"
     inkscape:object-nodes="true"
     inkscape:snap-smooth-nodes="true"
     inkscape:zoom="2.6700352"
     inkscape:cx="188.73104"
     inkscape:cy="384.54276"
     inkscape:window-x="1912"
     inkscape:window-y="-8"
     inkscape:window-maximized="1"
     inkscape:current-layer="g3976" /><g
     id="g3976"
     transform="translate(90.79892,259.71611)"><g
       id="g2995"><path
         sodipodi:nodetypes="scssccsccsssss"
         inkscape:connector-curvature="0"
         id="path6"
         d="m 85.9867,-258.73654 c -13.64096,0 -24.80899,10.92742 -24.80605,24.38571 l 0,155.85386 c 0,13.4605 11.16312,24.41639 24.80605,24.41639 l 31.37415,0 44.602,48.06592 c 0.78765,0.84796 1.89866,1.31898 3.05493,1.31898 1.15628,0 2.2798,-0.4516 3.08549,-1.31898 l 44.602,-48.06592 31.71019,0 c 13.64312,0 24.80605,-10.95847 24.80605,-24.41639 l 0,-155.85386 c 0,-13.45853 -11.17295,-24.38571 -24.80605,-24.38571 z"
         style="font-size:medium;font-style:normal;font-variant:normal;font-weight:normal;font-stretch:normal;text-indent:0;text-align:start;text-decoration:none;line-height:normal;letter-spacing:normal;word-spacing:normal;text-transform:none;direction:ltr;block-progression:tb;writing-mode:lr-tb;text-anchor:start;baseline-shift:baseline;color:#000000;fill:#000000;fill-opacity:1;fill-rule:nonzero;stroke:#000000;stroke-width:2;stroke-miterlimit:4;stroke-dasharray:none;marker:none;visibility:visible;display:inline;overflow:visible;enable-background:accumulate;font-family:Sans;-inkscape-font-specification:Sans" /><g
         transform="matrix(0.90158601,0,0,0.90912782,-41.970852,-192.22613)"
         id="g4049"><path
           style="fill:#ffffff;stroke:#000000;stroke-width:1.74105811"
           inkscape:connector-curvature="0"
           d="M 289.338,18.791022 H 264.26445 V 1.2605706 c 0,0 30.15819,-26.3601496 25.07355,-36.1081956 h -25.07355 v -6.018904 c 0,-5.199887 -4.21315,-9.418697 -9.40564,-9.418697 h -50.14712 c -5.19075,0 -9.40389,4.21881 -9.40389,9.418697 v 6.018904 H 170.23425 C 165.1496,-25.099579 195.3078,1.2605706 195.3078,1.2605706 V 18.791022 h -25.07355 c -5.08465,9.746301 25.07355,36.106451 25.07355,36.106451 v 17.530451 h -25.07355 c -5.08465,9.748043 25.07355,36.108196 25.07355,36.108196 v 6.0189 c 0,5.19989 4.21314,9.4187 9.40389,9.4187 h 50.14712 c 5.19075,0 9.40389,-4.21881 9.40389,-9.4187 v -6.0189 c 0,0 30.1582,-26.360153 25.07356,-36.108196 H 264.26445 V 54.897473 c 0,0 30.15819,-26.36015 25.07355,-36.106451 z m -31.08016,71.674444 c 0,15.751264 -12.74377,28.520974 -28.47085,28.520974 -15.72707,0 -28.47086,-12.76971 -28.47086,-28.520974 V -16.77523 c 0,-15.751266 12.74379,-28.522704 28.47086,-28.522704 15.72708,0 28.47085,12.771438 28.47085,28.522704 V 90.465466 z"
           id="path4031" /><path
           inkscape:connector-curvature="0"
           id="circle4033"
           d="m 249.21927,-16.036374 c 0,10.6932887 -8.65342,19.3619115 -19.3279,19.3619115 -10.67452,0 -19.3279,-8.6686228 -19.3279,-19.3619115 0,-10.693288 8.65338,-19.361909 19.3279,-19.361909 10.67448,0 19.3279,8.668621 19.3279,19.361909 z"
           style="fill:#ffffff;stroke:#000000;stroke-width:1.74105811" /><path
           inkscape:connector-curvature="0"
           id="circle4035"
           d="m 249.21927,89.932228 c 0,10.693282 -8.65342,19.361912 -19.3279,19.361912 -10.67452,0 -19.3279,-8.66863 -19.3279,-19.361912 0,-10.693288 8.65338,-19.361912 19.3279,-19.361912 10.67448,0 19.3279,8.668624 19.3279,19.361912 z"
           style="fill:#ffffff;stroke:#000000;stroke-width:1.74105811" /><path
           inkscape:connector-curvature="0"
           id="circle4037"
           d="m 249.21927,36.948804 c 0,10.69329 -8.65342,19.361911 -19.3279,19.361911 -10.67452,0 -19.3279,-8.668621 -19.3279,-19.361911 0,-10.693289 8.65338,-19.36191 19.3279,-19.36191 10.67448,0 19.3279,8.668621 19.3279,19.36191 z"
           style="fill:#ffffff;stroke:#000000;stroke-width:1.74105811" /></g></g></g></svg>