<?xml version="1.0" encoding="UTF-8" standalone="no"?>
<svg
   xmlns:dc="http://purl.org/dc/elements/1.1/"
   xmlns:cc="http://creativecommons.org/ns#"
   xmlns:rdf="http://www.w3.org/1999/02/22-rdf-syntax-ns#"
   xmlns:svg="http://www.w3.org/2000/svg"
   xmlns="http://www.w3.org/2000/svg"
   xmlns:sodipodi="http://sodipodi.sourceforge.net/DTD/sodipodi-0.dtd"
   xmlns:inkscape="http://www.inkscape.org/namespaces/inkscape"
   version="1.1"
   x="0px"
   y="0px"
   viewBox="0 0 512 512"
   enable-background="new 0 0 100 100"
   xml:space="preserve"
   id="svg2"
   inkscape:version="0.48.4 r9939"
   width="100%"
   height="100%"
   sodipodi:docname="square_stop.svg"><metadata
     id="metadata16"><rdf:RDF><cc:Work
         rdf:about=""><dc:format>image/svg+xml</dc:format><dc:type
           rdf:resource="http://purl.org/dc/dcmitype/StillImage" /><dc:title></dc:title></cc:Work></rdf:RDF></metadata><defs
     id="defs14" /><sodipodi:namedview
     pagecolor="#ffffff"
     bordercolor="#666666"
     borderopacity="1"
     objecttolerance="10"
     gridtolerance="10"
     guidetolerance="10"
     inkscape:pageopacity="0"
     inkscape:pageshadow="2"
     inkscape:window-width="1920"
     inkscape:window-height="1137"
     id="namedview12"
     showgrid="false"
     inkscape:object-paths="true"
     inkscape:snap-intersection-paths="true"
     inkscape:object-nodes="true"
     inkscape:snap-smooth-nodes="true"
     inkscape:zoom="0.6675088"
     inkscape:cx="-113.16346"
     inkscape:cy="308.76261"
     inkscape:window-x="1912"
     inkscape:window-y="-8"
     inkscape:window-maximized="1"
     inkscape:current-layer="g3976" /><g
     id="g3976"
     transform="translate(90.79892,259.71611)"><g
       id="g3047"><path
         sodipodi:nodetypes="scsccssss"
         inkscape:connector-curvature="0"
         id="path6"
         d="m -23.353111,-251.3162 c -32.46961,0 -59.052899,26.44076 -59.045901,59.00541 l 0,377.11513 c 0,32.56999 26.571602,59.07964 59.045901,59.07964 120.399408,-1.02179 191.787501,0 377.108381,0 32.47476,0 59.0459,-26.5159 59.0459,-59.07964 l 0,-377.11513 c 0,-32.56522 -26.595,-59.00541 -59.0459,-59.00541 z"
         style="font-size:medium;font-style:normal;font-variant:normal;font-weight:normal;font-stretch:normal;text-indent:0;text-align:start;text-decoration:none;line-height:normal;letter-spacing:normal;word-spacing:normal;text-transform:none;direction:ltr;block-progression:tb;writing-mode:lr-tb;text-anchor:start;baseline-shift:baseline;color:#000000;fill:#000000;fill-opacity:1;fill-rule:nonzero;stroke:#000000;stroke-width:4.79981232;stroke-miterlimit:4;stroke-dasharray:none;marker:none;visibility:visible;display:inline;overflow:visible;enable-background:accumulate;font-family:Sans;-inkscape-font-specification:Sans" /><path
         style="fill:#ffffff"
         inkscape:connector-curvature="0"
         id="tools-2-icon"
         d="M 318.1554,107.81624 147.47019,-63.248341 c -8.20737,-8.223721 -12.43453,-19.662411 -11.53826,-31.259519 1.69465,-21.96923 -5.83739,-44.51809 -22.60325,-61.32014 -21.822866,-21.87111 -53.360028,-28.06524 -80.691559,-18.59316 l 49.621362,49.73115 c 1.138755,19.4023 -28.793585,49.399047 -48.151246,48.257774 l -49.62049,-49.730234 c -9.451175,27.39109 -3.27162,58.998922 18.5512191,80.870036 16.7649649,16.802978 39.2649559,24.349851 61.1856859,22.651475 11.581396,-0.898255 22.97597,3.331062 31.190525,11.562889 L 266.10117,159.98651 c 14.37435,14.40704 37.67809,14.40704 52.05423,0 14.37434,-14.40704 14.37434,-37.76413 0,-52.17027 z m -27.82188,39.03771 c -8.3771,0 -15.17094,-6.80616 -15.17094,-15.20449 0,-8.39562 6.79294,-15.20359 15.17094,-15.20359 8.37798,0 15.17091,6.80708 15.17091,15.20359 0,8.39833 -6.7938,15.20449 -15.17091,15.20449 z M 183.52191,-64.906242 271.53354,-153.11258 c 17.99623,-18.0369 47.17416,-18.0369 65.17038,0 17.99621,18.03694 17.99621,47.27855 0,65.31457 L 248.69227,0.4083248 232.73556,-15.5828 316.75173,-99.78482 c 2.59449,-2.59843 2.59449,-6.81154 0,-9.4118 -2.59271,-2.59753 -6.79651,-2.59753 -9.39101,9e-4 l -84.01616,84.20205 -13.6604,-13.69062 84.01439,-84.20292 c 2.5945,-2.59843 2.5945,-6.81154 0.002,-9.41087 -2.59273,-2.59934 -6.79654,-2.59934 -9.39103,0 L 200.29336,-48.096961 183.5221,-64.906242 z M 137.28441,68.674123 72.333154,133.76996 c -3.521316,3.52818 -6.484911,7.57299 -8.791121,11.99673 l -4.667207,8.95544 -32.352589,16.56176 -12.800045,-12.82835 15.827385,-33.12621 8.934814,-4.67662 c 4.413941,-2.30955 8.450719,-5.2815 11.970212,-8.81057 l 64.952187,-65.094939 21.87762,21.926922 z" /></g></g></svg>