<?xml version="1.0" encoding="UTF-8" standalone="no"?>
<!-- The icon can be used freely in both personal and commercial projects with no attribution required, but always appreciated. 
You may NOT sub-license, resell, rent, redistribute or otherwise transfer the icon without express written permission from iconmonstr.com -->

<svg
   xmlns:dc="http://purl.org/dc/elements/1.1/"
   xmlns:cc="http://creativecommons.org/ns#"
   xmlns:rdf="http://www.w3.org/1999/02/22-rdf-syntax-ns#"
   xmlns:svg="http://www.w3.org/2000/svg"
   xmlns="http://www.w3.org/2000/svg"
   xmlns:sodipodi="http://sodipodi.sourceforge.net/DTD/sodipodi-0.dtd"
   xmlns:inkscape="http://www.inkscape.org/namespaces/inkscape"
   version="1.1"
   x="0px"
   y="0px"
   width="512px"
   height="512px"
   viewBox="0 0 512 512"
   enable-background="new 0 0 512 512"
   xml:space="preserve"
   id="svg2994"
   inkscape:version="0.48.4 r9939"
   sodipodi:docname="pin-house-black.svg"><metadata
   id="metadata3001"><rdf:RDF><cc:Work
       rdf:about=""><dc:format>image/svg+xml</dc:format><dc:type
         rdf:resource="http://purl.org/dc/dcmitype/StillImage" /><dc:title /></cc:Work></rdf:RDF></metadata><defs
   id="defs2999" /><sodipodi:namedview
   pagecolor="#ffffff"
   bordercolor="#666666"
   borderopacity="1"
   objecttolerance="10"
   gridtolerance="10"
   guidetolerance="10"
   inkscape:pageopacity="0"
   inkscape:pageshadow="2"
   inkscape:window-width="1920"
   inkscape:window-height="1137"
   id="namedview2997"
   showgrid="true"
   inkscape:zoom="1.3120145"
   inkscape:cx="163.17857"
   inkscape:cy="291.35009"
   inkscape:window-x="1912"
   inkscape:window-y="-8"
   inkscape:window-maximized="1"
   inkscape:current-layer="svg2994"
   showguides="false"
   inkscape:guide-bbox="true"
   inkscape:snap-global="false"><inkscape:grid
     type="xygrid"
     id="grid3794" /></sodipodi:namedview>

<g
   id="g3003"><path
     transform="matrix(0.93163716,0,0,0.95711274,18.527256,3.4496483)"
     d="m 355,104.5 a 100,97.5 0 1 1 -200,0 100,97.5 0 1 1 200,0 z"
     sodipodi:ry="97.5"
     sodipodi:rx="100"
     sodipodi:cy="104.5"
     sodipodi:cx="255"
     id="path2983"
     style="fill:#ffffff;fill-opacity:1;fill-rule:evenodd;stroke:none"
     sodipodi:type="arc" /><g
     transform="matrix(0.6231454,0,0,0.62135922,96.474778,-31.06796)"
     id="g3790"><path
       inkscape:connector-curvature="0"
       id="location-5-icon"
       d="M 256,50 C 162.939,50 87.5,125.44 87.5,218.5 87.5,313 169.43,375.333 256,462 342.57,375.333 424.5,313 424.5,218.5 424.5,125.44 349.061,50 256,50 z m 0,286.958 c -68.275,0 -123.624,-55.349 -123.624,-123.624 0,-68.276 55.349,-123.625 123.624,-123.625 68.276,0 123.625,55.348 123.625,123.625 0,68.275 -55.349,123.624 -123.625,123.624 z"
       style="stroke-width:0.2;stroke-miterlimit:4;stroke-dasharray:none" /><path
       d="m 321.3036,208.52701 v 65.81176 H 274.278 v -35.76601 h -35.41797 v 35.76601 h -47.02559 v -65.81176 h -16.83058 l 81.56536,-81.50319 81.56535,81.50359 H 321.3036 z m -10.06501,-74.17815 h -18.97265 v 15.16918 l 18.97265,19.01463 v -34.18381 z"
       id="home-4-icon"
       inkscape:connector-curvature="0" /></g></g></svg>