<?xml version="1.0" encoding="UTF-8" standalone="no"?>
<svg
   xmlns:dc="http://purl.org/dc/elements/1.1/"
   xmlns:cc="http://creativecommons.org/ns#"
   xmlns:rdf="http://www.w3.org/1999/02/22-rdf-syntax-ns#"
   xmlns:svg="http://www.w3.org/2000/svg"
   xmlns="http://www.w3.org/2000/svg"
   xmlns:sodipodi="http://sodipodi.sourceforge.net/DTD/sodipodi-0.dtd"
   xmlns:inkscape="http://www.inkscape.org/namespaces/inkscape"
   version="1.1"
   x="0px"
   y="0px"
   viewBox="0 0 512 512"
   enable-background="new 0 0 100 100"
   xml:space="preserve"
   id="svg2"
   inkscape:version="0.48.4 r9939"
   width="100%"
   height="100%"
   sodipodi:docname="sq_pin-climbing-white.svg"><metadata
     id="metadata16"><rdf:RDF><cc:Work
         rdf:about=""><dc:format>image/svg+xml</dc:format><dc:type
           rdf:resource="http://purl.org/dc/dcmitype/StillImage" /><dc:title /></cc:Work></rdf:RDF></metadata><defs
     id="defs14" /><sodipodi:namedview
     pagecolor="#ffffff"
     bordercolor="#666666"
     borderopacity="1"
     objecttolerance="10"
     gridtolerance="10"
     guidetolerance="10"
     inkscape:pageopacity="0"
     inkscape:pageshadow="2"
     inkscape:window-width="1920"
     inkscape:window-height="1137"
     id="namedview12"
     showgrid="false"
     inkscape:object-paths="true"
     inkscape:snap-intersection-paths="true"
     inkscape:object-nodes="true"
     inkscape:snap-smooth-nodes="true"
     inkscape:zoom="2.6700352"
     inkscape:cx="188.73104"
     inkscape:cy="384.54276"
     inkscape:window-x="1912"
     inkscape:window-y="-8"
     inkscape:window-maximized="1"
     inkscape:current-layer="g3976" /><g
     id="g3976"
     transform="translate(90.79892,259.71611)"><g
       id="g3001"><path
         sodipodi:nodetypes="scssccsccsssss"
         inkscape:connector-curvature="0"
         id="path6"
         d="m 85.9867,-258.73654 c -13.64096,0 -24.80899,10.92742 -24.80605,24.38571 l 0,155.85386 c 0,13.4605 11.16312,24.41639 24.80605,24.41639 l 31.37415,0 44.602,48.06592 c 0.78765,0.84796 1.89866,1.31898 3.05493,1.31898 1.15628,0 2.2798,-0.4516 3.08549,-1.31898 l 44.602,-48.06592 31.71019,0 c 13.64312,0 24.80605,-10.95847 24.80605,-24.41639 l 0,-155.85386 c 0,-13.45853 -11.17295,-24.38571 -24.80605,-24.38571 z"
         style="font-size:medium;font-style:normal;font-variant:normal;font-weight:normal;font-stretch:normal;text-indent:0;text-align:start;text-decoration:none;line-height:normal;letter-spacing:normal;word-spacing:normal;text-transform:none;direction:ltr;block-progression:tb;writing-mode:lr-tb;text-anchor:start;baseline-shift:baseline;color:#000000;fill:#000000;fill-opacity:1;fill-rule:nonzero;stroke:#000000;stroke-width:2;stroke-miterlimit:4;stroke-dasharray:none;marker:none;visibility:visible;display:inline;overflow:visible;enable-background:accumulate;font-family:Sans;-inkscape-font-specification:Sans" /><path
         style="fill:#ffffff"
         inkscape:connector-curvature="0"
         d="m 213.79693,-127.13455 c -0.0473,1.67878 0.47747,5.06163 0.62088,6.07396 1.1085,7.76961 2.23556,15.53922 3.38287,23.303769 0.60401,4.094867 3.26644,4.862548 6.12794,4.407001 0.766,-0.121479 1.53706,-0.248021 2.27606,-0.472419 2.13432,-0.64789 3.39973,-2.184939 3.01673,-4.339512 -0.85372,-4.762999 -1.89643,-9.495629 -3.02348,-14.201259 -0.28176,-1.17599 -3.77598,-15.55104 -4.02231,-16.87549 -0.24802,-1.32447 2.75353,-8.71108 2.34354,-8.63853 -0.22271,0.0388 -7.82023,-0.99208 -9.99505,0 -1.11018,1.82219 -0.67995,9.06539 -0.72718,10.74248"
         id="path3950" /><path
         style="fill:#ffffff"
         inkscape:connector-curvature="0"
         d="m 237.06358,-198.08518 c 3.49587,-3.75405 3.32547,-9.51588 -0.38638,-13.05396 -3.7591,-3.58195 -9.85332,-3.40816 -13.31885,0.37794 -3.42841,3.74729 -3.231,9.61036 0.43868,13.11807 3.7726,3.60895 9.67615,3.41323 13.26655,-0.44205"
         id="path3952" /><polygon
         style="fill:#ffffff"
         transform="matrix(-1.6872117,0,0,1.6872117,270.72174,-242.87053)"
         points="44.004,100.022 45.53,100.022 38.026,60.825 35.918,61.228 "
         id="polygon3954" /><path
         style="fill:#ffffff"
         inkscape:connector-curvature="0"
         d="m 221.12786,-178.8864 c 0,0 -1.81545,-0.5669 -2.20182,-0.67825 -2.37053,-0.67827 -5.01439,0.054 -6.43671,0.33913 -1.69396,0.33912 -11.34987,-3.0488 -14.39867,-4.91316 -3.04878,-1.86269 -9.82463,-8.46981 -9.82463,-9.65592 0,-1.18611 1.86269,-6.26799 3.21752,-4.74275 1.35483,1.52524 14.05953,10.67162 15.75349,10.84033 1.69396,0.17041 12.7047,-0.16871 15.41437,-1.52354 1.94029,-0.97015 8.97765,-3.0488 11.01074,-2.37223 2.03309,0.67826 6.4367,3.04879 5.75846,6.77584 -0.67826,3.72705 -3.55665,17.10833 -4.40363,20.49625 -0.84697,3.38793 -3.72705,13.38127 -5.2506,15.7535 -1.52523,2.37222 -2.54094,6.77585 -6.26799,7.11497 -3.72705,0.33913 -8.80893,-0.33744 -13.55,-1.52355 -4.74275,-1.18612 -9.31678,-5.92886 -10.84202,-2.88007 -1.52524,3.04879 -1.35652,6.94456 -3.55664,12.53429 -2.20182,5.58973 -3.89578,13.21256 -4.57403,16.26135 -0.67827,3.04879 -0.33745,2.03477 -2.20182,3.38792 -1.86436,1.35483 -6.77753,0.67658 -7.11497,-1.01739 -0.33912,-1.69396 8.13067,-32.01484 9.14637,-34.38706 1.0174,-2.37222 2.2035,-6.60543 7.11498,-6.94457 4.91148,-0.33912 11.17947,1.18443 13.21255,1.01571 2.0331,-0.16872 4.74275,-2.03141 5.58973,-4.91147 0.84699,-2.88008 3.8148,-11.03775 4.74276,-13.72041 1.52524,-4.40025 -0.33744,-5.24892 -0.33744,-5.24892 z"
         id="path3956" /><path
         style="fill:#ffffff"
         inkscape:connector-curvature="0"
         d="m 225.70526,-215.45671 c -1.86437,0.67826 -6.77753,3.72705 -6.77753,3.72705 0,0 -2.54093,-17.61617 -2.54093,-19.81799 0,-2.20181 3.55663,-7.96196 4.74274,-7.96196 1.18612,0 2.37053,1.18612 2.37053,3.72706 0,2.54094 2.0331,19.64927 2.0331,19.64927"
         id="path3958" /><path
         style="fill:#ffffff"
         inkscape:connector-curvature="0"
         d="m 234.00465,-152.27231 c -0.67825,1.1861 -5.42101,10.33247 -5.25059,11.51859 0.1704,1.1861 0.002,11.85772 1.69396,13.55169 1.69395,1.69395 3.04878,-3.89578 3.04878,-3.89578 0,0 -1.35483,5.58973 1.18612,6.09758 2.54093,0.50785 2.70966,-12.02644 2.70966,-12.02644 0,0 2.2018,-8.97766 0.50785,-11.01075 -1.69228,-2.03309 -3.89578,-4.23489 -3.89578,-4.23489 z"
         id="path3960" /><g
         style="fill:#ffffff"
         transform="matrix(-2.0853194,0,0,1.8059656,283.66023,-247.19058)"
         id="g3962"><path
           style="fill:#ffffff"
           inkscape:connector-curvature="0"
           d="M 92.798,0 H 34.323 c -0.227,5.138 2.082,1.308 3.354,3.895 1.428,2.907 -0.253,11.402 2.149,13.91 5.76,6.01 11.827,2.256 16.356,2.507 -14.314,1.138 -1.232,6.76 -6.911,9.727 -3.683,1.923 1.994,24.385 4.007,32.66 2.013,8.275 10.618,9.619 10.618,9.619 0,0 -9.083,0.529 -9.415,5.711 -0.333,5.182 0.052,2.036 2.512,12.612 2.169,9.327 2.114,6.359 1.793,9.359 H 92.8 c 4.101,0 7.2,-3.854 7.2,-8.021 V 8 C 100,3.833 96.9,0 92.798,0 z"
           id="path3964" /></g></g></g></svg>