<?xml version="1.0" encoding="UTF-8" standalone="no"?>
<svg
   xmlns:dc="http://purl.org/dc/elements/1.1/"
   xmlns:cc="http://creativecommons.org/ns#"
   xmlns:rdf="http://www.w3.org/1999/02/22-rdf-syntax-ns#"
   xmlns:svg="http://www.w3.org/2000/svg"
   xmlns="http://www.w3.org/2000/svg"
   xmlns:sodipodi="http://sodipodi.sourceforge.net/DTD/sodipodi-0.dtd"
   xmlns:inkscape="http://www.inkscape.org/namespaces/inkscape"
   version="1.1"
   x="0px"
   y="0px"
   viewBox="0 0 512 512"
   enable-background="new 0 0 100 100"
   xml:space="preserve"
   id="svg2"
   inkscape:version="0.48.4 r9939"
   width="100%"
   height="100%"
   sodipodi:docname="sq_pin-climbing-white.svg"><metadata
     id="metadata16"><rdf:RDF><cc:Work
         rdf:about=""><dc:format>image/svg+xml</dc:format><dc:type
           rdf:resource="http://purl.org/dc/dcmitype/StillImage" /><dc:title></dc:title></cc:Work></rdf:RDF></metadata><defs
     id="defs14" /><sodipodi:namedview
     pagecolor="#ffffff"
     bordercolor="#666666"
     borderopacity="1"
     objecttolerance="10"
     gridtolerance="10"
     guidetolerance="10"
     inkscape:pageopacity="0"
     inkscape:pageshadow="2"
     inkscape:window-width="1920"
     inkscape:window-height="1137"
     id="namedview12"
     showgrid="false"
     inkscape:object-paths="true"
     inkscape:snap-intersection-paths="true"
     inkscape:object-nodes="true"
     inkscape:snap-smooth-nodes="true"
     inkscape:zoom="0.6675088"
     inkscape:cx="-113.16346"
     inkscape:cy="536.83378"
     inkscape:window-x="1912"
     inkscape:window-y="-8"
     inkscape:window-maximized="1"
     inkscape:current-layer="g3976" /><g
     id="g3976"
     transform="translate(90.79892,259.71611)"><g
       id="g3012"><g
         id="g3001"><path
           style="font-size:medium;font-style:normal;font-variant:normal;font-weight:normal;font-stretch:normal;text-indent:0;text-align:start;text-decoration:none;line-height:normal;letter-spacing:normal;word-spacing:normal;text-transform:none;direction:ltr;block-progression:tb;writing-mode:lr-tb;text-anchor:start;baseline-shift:baseline;color:#000000;fill:#000000;fill-opacity:1;fill-rule:nonzero;stroke:#000000;stroke-width:4.79981232;stroke-miterlimit:4;stroke-dasharray:none;marker:none;visibility:visible;display:inline;overflow:visible;enable-background:accumulate;font-family:Sans;-inkscape-font-specification:Sans"
           d="m -23.353111,-251.3162 c -32.46961,0 -59.052899,26.44076 -59.045901,59.00541 l 0,377.11513 c 0,32.56999 26.571602,59.07964 59.045901,59.07964 120.399408,-1.02179 191.787501,0 377.108381,0 32.47476,0 59.0459,-26.5159 59.0459,-59.07964 l 0,-377.11513 c 0,-32.56522 -26.595,-59.00541 -59.0459,-59.00541 z"
           id="path6"
           inkscape:connector-curvature="0"
           sodipodi:nodetypes="scsccssss" /><path
           id="path3950"
           d="m 309.35841,65.489278 c -0.12081,3.904215 1.21945,11.771455 1.58571,14.125765 2.8311,18.069198 5.70959,36.138407 8.6398,54.195827 1.54263,9.52314 8.34243,11.30847 15.65066,10.24904 1.95635,-0.28251 3.92563,-0.5768 5.81301,-1.09866 5.45103,-1.50675 8.68285,-5.08136 7.70468,-10.09208 -2.18039,-11.07696 -4.84345,-22.08328 -7.72192,-33.026811 -0.71961,-2.734914 -9.64379,-36.165906 -10.27291,-39.246081 -0.63344,-3.080217 7.03248,-20.258708 5.98536,-20.089982 -0.56879,0.09023 -19.97273,-2.307209 -25.52718,0 -2.83539,4.237729 -1.73658,21.082694 -1.85721,24.982982"
           inkscape:connector-curvature="0"
           style="fill:#ffffff" /><path
           id="path3952"
           d="m 368.78104,-99.51532 c 8.92839,-8.73052 8.49319,-22.13037 -0.98681,-30.35863 -9.60068,-8.33028 -25.16521,-7.9261 -34.01611,0.87895 -8.75611,8.71479 -8.25192,22.3501 1.12038,30.507718 9.63516,8.393063 24.71271,7.937895 33.88254,-1.028038"
           inkscape:connector-curvature="0"
           style="fill:#ffffff" /><polygon
           id="polygon3954"
           points="44.004,100.022 45.53,100.022 38.026,60.825 35.918,61.228 "
           transform="matrix(-4.3091098,0,0,3.9238229,454.74341,-203.66929)"
           style="fill:#ffffff" /><path
           id="path3956"
           d="m 328.08148,-54.866152 c 0,0 -4.63663,-1.318392 -5.62341,-1.577357 -6.05429,-1.577401 -12.80666,0.125583 -16.43924,0.788696 -4.32635,0.788661 -28.98739,-7.090371 -36.77396,-11.42617 -7.78653,-4.331929 -25.09194,-19.697611 -25.09194,-22.456063 0,-2.758446 4.75728,-14.576994 8.21749,-11.029854 3.46021,3.547128 35.90781,24.818189 40.23415,25.210543 4.32635,0.396315 32.44759,-0.392354 39.36803,-3.543179 4.95548,-2.256206 22.92877,-7.09037 28.12125,-5.516921 5.19247,1.577375 16.43922,7.090344 14.707,15.758064 -1.73227,8.667727 -9.08362,39.787574 -11.24679,47.666605 -2.16315,7.879058 -9.51883,31.11983 -13.40994,36.636751 -3.89542,5.516896 -6.48952,15.75809 -16.00835,16.546751 -9.51882,0.788696 -22.49786,-0.784753 -34.60647,-3.543205 -12.11289,-2.75847 -23.79489,-13.788307 -27.69033,-6.697964 -3.89543,7.090345 -3.46452,16.150445 -9.0836,29.150065 -5.62341,12.999623 -9.94976,30.727476 -11.68198,37.817822 -1.73229,7.090345 -0.86184,4.732108 -5.62341,7.879032 -4.76154,3.150819 -17.30971,1.573467 -18.17151,-2.36607 -0.86611,-3.939516 20.76558,-74.454538 23.35966,-79.971433 2.59842,-5.5168961 5.62771,-15.361758 18.17154,-16.1504721 12.54384,-0.788669 28.55217,2.754545 33.74463,2.36216424 5.1925,-0.39238184 12.11289,-4.72430024 14.27607,-11.42224614 2.1632,-6.69798 9.74293,-25.669673 12.11293,-31.908534 3.89543,-10.233336 -0.86182,-12.207025 -0.86182,-12.207025 z"
           inkscape:connector-curvature="0"
           style="fill:#ffffff" /><path
           id="path3958"
           d="m 339.77208,-139.915 c -4.76157,1.57737 -17.3097,8.66772 -17.3097,8.66772 0,0 -6.48948,-40.96862 -6.48948,-46.08923 0,-5.12058 9.08357,-18.51654 12.11287,-18.51654 3.02934,0 6.0543,2.75847 6.0543,8.66774 0,5.90929 5.19251,45.69686 5.19251,45.69686"
           inkscape:connector-curvature="0"
           style="fill:#ffffff" /><path
           id="path3960"
           d="m 360.96858,7.0282639 c -1.73224,2.7584259 -13.84516,24.0294581 -13.40992,26.7879281 0.43521,2.758425 0.005,27.576616 4.32635,31.516153 4.32632,3.939495 7.78654,-9.060124 7.78654,-9.060124 0,0 -3.46022,12.999619 3.02933,14.18069 6.48948,1.181061 6.92042,-27.969 6.92042,-27.969 0,0 5.62335,-20.878678 1.29704,-25.606877 -4.32205,-4.728207 -9.94976,-9.8487701 -9.94976,-9.8487701 z"
           inkscape:connector-curvature="0"
           style="fill:#ffffff" /><g
           id="g3962"
           transform="matrix(-5.3258701,0,0,4.2,487.78809,-213.71611)"
           style="fill:#ffffff"><path
             id="path3964"
             d="M 92.798,0 H 34.323 c -0.227,5.138 2.082,1.308 3.354,3.895 1.428,2.907 -0.253,11.402 2.149,13.91 5.76,6.01 11.827,2.256 16.356,2.507 -14.314,1.138 -1.232,6.76 -6.911,9.727 -3.683,1.923 1.994,24.385 4.007,32.66 2.013,8.275 10.618,9.619 10.618,9.619 0,0 -9.083,0.529 -9.415,5.711 -0.333,5.182 0.052,2.036 2.512,12.612 2.169,9.327 2.114,6.359 1.793,9.359 H 92.8 c 4.101,0 7.2,-3.854 7.2,-8.021 V 8 C 100,3.833 96.9,0 92.798,0 z"
             inkscape:connector-curvature="0"
             style="fill:#ffffff" /></g></g></g></g></svg>