<?xml version="1.0" encoding="UTF-8" standalone="no"?>
<!-- Created with Inkscape (http://www.inkscape.org/) -->

<svg
   xmlns:dc="http://purl.org/dc/elements/1.1/"
   xmlns:cc="http://creativecommons.org/ns#"
   xmlns:rdf="http://www.w3.org/1999/02/22-rdf-syntax-ns#"
   xmlns:svg="http://www.w3.org/2000/svg"
   xmlns="http://www.w3.org/2000/svg"
   xmlns:sodipodi="http://sodipodi.sourceforge.net/DTD/sodipodi-0.dtd"
   xmlns:inkscape="http://www.inkscape.org/namespaces/inkscape"
   width="512"
   height="512"
   id="svg2"
   version="1.1"
   inkscape:version="0.91 r13725"
   sodipodi:docname="circle_climbing.svg">
  <defs
     id="defs4" />
  <sodipodi:namedview
     id="base"
     pagecolor="#ffffff"
     bordercolor="#666666"
     borderopacity="1.0"
     inkscape:pageopacity="0.0"
     inkscape:pageshadow="2"
     inkscape:zoom="1"
     inkscape:cx="202.90917"
     inkscape:cy="256.79273"
     inkscape:document-units="px"
     inkscape:current-layer="layer1"
     showgrid="false"
     inkscape:window-width="1366"
     inkscape:window-height="706"
     inkscape:window-x="-8"
     inkscape:window-y="-8"
     inkscape:window-maximized="1" />
  <metadata
     id="metadata7">
    <rdf:RDF>
      <cc:Work
         rdf:about="">
        <dc:format>image/svg+xml</dc:format>
        <dc:type
           rdf:resource="http://purl.org/dc/dcmitype/StillImage" />
        <dc:title></dc:title>
      </cc:Work>
    </rdf:RDF>
  </metadata>
  <g
     inkscape:label="Layer 1"
     inkscape:groupmode="layer"
     id="layer1"
     transform="translate(0,-540.36218)">
    <g
       id="g4204">
      <circle
         r="239.23515"
         id="path2985"
         style="fill:#ff5555;fill-opacity:1;fill-rule:evenodd;stroke:#000000;stroke-width:26;stroke-miterlimit:4;stroke-dasharray:none;stroke-opacity:1"
         cx="256"
         cy="796.36218" />
      <g
         transform="matrix(3.5564979,0,0,3.2992742,680.31467,-1941.0952)"
         style="fill:#ffffff"
         id="g3386">
        <path
           style="fill:#ffffff"
           inkscape:connector-curvature="0"
           d="m -93.816326,848.30002 c -0.028,0.995 0.283,3 0.368,3.6 0.657,4.605 1.325,9.21 2.005,13.812 0.358,2.427 1.936,2.882 3.632,2.612 0.454,-0.072 0.911,-0.147 1.349,-0.28 1.265,-0.384 2.015,-1.295 1.788,-2.572 -0.506,-2.823 -1.124,-5.628 -1.792,-8.417 -0.167,-0.697 -2.238,-9.217 -2.384,-10.002 -0.147,-0.785 1.632,-5.163 1.389,-5.12 -0.132,0.023 -4.635,-0.588 -5.924,0 -0.658,1.08 -0.403,5.373 -0.431,6.367"
           id="path3340" />
        <path
           style="fill:#ffffff"
           inkscape:connector-curvature="0"
           d="m -80.026326,806.24802 c 2.072,-2.225 1.971,-5.64 -0.229,-7.737 -2.228,-2.123 -5.84,-2.02 -7.894,0.224 -2.032,2.221 -1.915,5.696 0.26,7.775 2.236,2.139 5.735,2.023 7.863,-0.262"
           id="path3342" />
        <polygon
           style="fill:#ffffff"
           points="44.004,100.022 45.53,100.022 38.026,60.825 35.918,61.228 "
           id="polygon3344"
           transform="matrix(-1,0,0,1,-60.077326,779.70402)" />
        <path
           style="fill:#ffffff"
           inkscape:connector-curvature="0"
           d="m -89.471326,817.62702 c 0,0 -1.076,-0.336 -1.305,-0.402 -1.405,-0.402 -2.972,0.032 -3.815,0.201 -1.004,0.201 -6.727004,-1.807 -8.534004,-2.912 -1.807,-1.104 -5.823,-5.02 -5.823,-5.723 0,-0.703 1.104,-3.715 1.907,-2.811 0.803,0.904 8.333004,6.325 9.337004,6.425 1.004,0.101 7.53,-0.1 9.136,-0.903 1.15,-0.575 5.321,-1.807 6.526,-1.406 1.205,0.402 3.815,1.807 3.413,4.016 -0.402,2.209 -2.108,10.14 -2.61,12.148 -0.502,2.008 -2.209,7.931 -3.112,9.337 -0.904,1.406 -1.506,4.016 -3.715,4.217 -2.209,0.201 -5.221,-0.2 -8.031,-0.903 -2.811,-0.703 -5.522004,-3.514 -6.426004,-1.707 -0.904,1.807 -0.804,4.116 -2.108,7.429 -1.305,3.313 -2.309,7.831 -2.711,9.638 -0.402,1.807 -0.2,1.206 -1.305,2.008 -1.105,0.803 -4.017,0.401 -4.217,-0.603 -0.201,-1.004 4.819,-18.975 5.421,-20.381 0.603,-1.406 1.306,-3.915 4.217,-4.116 2.911,-0.201 6.626004,0.702 7.831004,0.602 1.205,-0.1 2.811,-1.204 3.313,-2.911 0.502,-1.707 2.261,-6.542 2.811,-8.132 0.904,-2.608 -0.2,-3.111 -0.2,-3.111 z"
           id="path3346" />
        <path
           style="fill:#ffffff"
           inkscape:connector-curvature="0"
           d="m -86.758326,795.95202 c -1.105,0.402 -4.017,2.209 -4.017,2.209 0,0 -1.506,-10.441 -1.506,-11.746 0,-1.305 2.108,-4.719 2.811,-4.719 0.703,0 1.405,0.703 1.405,2.209 0,1.506 1.205,11.646 1.205,11.646"
           id="path3348" />
        <path
           style="fill:#ffffff"
           inkscape:connector-curvature="0"
           d="m -81.839326,833.40102 c -0.402,0.703 -3.213,6.124 -3.112,6.827 0.101,0.703 10e-4,7.028 1.004,8.032 1.004,1.004 1.807,-2.309 1.807,-2.309 0,0 -0.803,3.313 0.703,3.614 1.506,0.301 1.606,-7.128 1.606,-7.128 0,0 1.305,-5.321 0.301,-6.526 -1.003,-1.205 -2.309,-2.51 -2.309,-2.51 z"
           id="path3350" />
        <g
           style="fill:#ffffff"
           id="g3352"
           transform="matrix(-1,0,0,1,-60.077326,779.70402)">
          <path
             style="fill:#ffffff"
             inkscape:connector-curvature="0"
             d="M 92.798,0 34.323,0 c -0.227,5.138 2.082,1.308 3.354,3.895 1.428,2.907 -0.253,11.402 2.149,13.91 5.76,6.01 11.827,2.256 16.356,2.507 -14.314,1.138 -1.232,6.76 -6.911,9.727 -3.683,1.923 1.994,24.385 4.007,32.66 2.013,8.275 10.618,9.619 10.618,9.619 0,0 -9.083,0.529 -9.415,5.711 -0.333,5.182 0.052,2.036 2.512,12.612 2.169,9.327 2.114,6.359 1.793,9.359 l 34.014,0 c 4.101,0 7.2,-3.854 7.2,-8.021 L 100,8 C 100,3.833 96.9,0 92.798,0 Z"
             id="path3354" />
        </g>
      </g>
    </g>
  </g>
</svg>
