<?xml version="1.0" encoding="utf-8"?>


<!-- The icon can be used freely in both personal and commercial projects with no attribution required, but always appreciated. 
You may NOT sub-license, resell, rent, redistribute or otherwise transfer the icon without express written permission from iconmonstr.com -->


<!DOCTYPE svg PUBLIC "-//W3C//DTD SVG 1.1//EN" "http://www.w3.org/Graphics/SVG/1.1/DTD/svg11.dtd">

<svg version="1.1" xmlns="http://www.w3.org/2000/svg" xmlns:xlink="http://www.w3.org/1999/xlink" x="0px" y="0px"

	 width="512px" height="512px" viewBox="0 0 512 512" enable-background="new 0 0 512 512" xml:space="preserve">

<path id="stop-4-icon" d="M382.673,227.105c4.387,5.34,4.707,18.36-0.504,23.471c-4.588,4.504-9.486,3.744-19.223,3.744v-31.248

	C372.151,223.073,378.767,222.352,382.673,227.105z M302.393,223.144c-3.762-2.794-11.039-2.814-14.832,0

	c-1.872,1.394-3.312,3.626-4.319,6.696c-3.484,10.626-3.449,48.475,0,58.825c1.008,3.023,2.447,5.232,4.319,6.623

	c3.755,2.793,11.047,2.818,14.832,0c1.872-1.391,3.312-3.6,4.319-6.623c3.473-10.41,3.469-48.257,0-58.825

	C305.704,226.77,304.265,224.538,302.393,223.144z M462.417,170.672v170.656L341.745,462H171.089L50.417,341.328V170.672L171.089,50

	h170.656L462.417,170.672z M182.657,281.104c0-12.588-4.026-20.382-19.583-27.216l-15.984-6.912

	c-7.118-2.938-10.655-6.115-10.655-13.967c0-8.202,4.272-11.952,11.808-11.952c4.032,0,6.911,1.32,8.64,3.96

	c1.728,2.641,2.593,6.407,2.593,11.304h19.871v-2.881c0-4.896-0.792-9.094-2.375-12.6c-5.237-11.578-16.793-15.048-29.448-15.048

	c-9.89,0-17.665,2.498-23.328,7.488c-10.324,9.101-9.362,26.467-6.912,33.911c2.229,6.803,7.125,11.508,13.393,14.905

	c11.768,6.396,25.947,7.248,29.447,16.631c1.317,3.557,1.966,11.619-2.88,15.553c-5.487,4.455-15.303,4.145-19.512-1.223

	c-2.374-3.016-2.736-7.682-2.736-11.521v-3.023h-20.736v4.176c0,9.504,2.521,16.801,7.561,21.889

	c5.039,5.088,13.415,7.631,25.128,7.631c11.232,0,19.99-2.469,26.28-7.416C179.513,299.849,182.657,291.954,182.657,281.104z

	 M253.218,207.809h-65.664v16.992h22.464v85.823h20.736v-85.823h22.464V207.809z M324.137,220.769

	c-2.448-4.703-5.977-8.375-10.584-11.016c-9.296-5.326-27.856-5.326-37.152,0c-4.607,2.641-8.136,6.312-10.584,11.016

	c-7.948,15.276-7.984,61.556,0,76.896c2.448,4.705,5.977,8.305,10.584,10.799c9.311,5.043,27.865,5.029,37.152,0

	c4.607-2.494,8.136-6.094,10.584-10.799C332.121,282.327,332.086,236.045,324.137,220.769z M400.529,217.457

	c-5.312-6.926-13.233-9.647-22.031-9.647H342.21v102.815h20.736v-41.039c11.668,0,17.195,0.383,24.479-1.873

	C411.535,260.258,409.729,229.455,400.529,217.457z"/>

</svg>

