<svg xmlns="http://www.w3.org/2000/svg" xmlns:xlink="http://www.w3.org/1999/xlink" version="1.1" x="0px" y="0px" viewBox="0 0 100 125" enable-background="new 0 0 100 100" xml:space="preserve"><g><path d="M49.939,96c-0.281,0-0.549-0.118-0.739-0.326L32.998,77.915H21.474c-4.649,0-8.431-3.781-8.431-8.429V12.428   C13.042,7.781,16.825,4,21.474,4h57.053c4.646,0,8.431,3.781,8.431,8.428v57.059c0,4.647-3.782,8.433-8.431,8.433H66.88   L50.678,95.674C50.488,95.882,50.22,96,49.939,96z M21.474,6c-3.546,0-6.431,2.884-6.431,6.428v57.059   c0,3.549,2.885,6.433,6.431,6.433h11.965c0.281,0,0.549,0.118,0.739,0.326l15.761,17.271L65.7,76.241   c0.188-0.208,0.458-0.326,0.739-0.326h12.088c3.546,0,6.431-2.884,6.431-6.429V12.428C84.958,8.884,82.073,6,78.527,6H21.474z"/></g><text x="0" y="115" fill="#000000" font-size="5px" font-weight="bold" font-family="'Helvetica Neue', Helvetica, Arial-Unicode, Arial, Sans-serif">Created by Juan Pablo Bravo</text><text x="0" y="120" fill="#000000" font-size="5px" font-weight="bold" font-family="'Helvetica Neue', Helvetica, Arial-Unicode, Arial, Sans-serif">from the Noun Project</text></svg>