<?xml version="1.0" encoding="UTF-8" standalone="no"?>
<svg
   xmlns:dc="http://purl.org/dc/elements/1.1/"
   xmlns:cc="http://creativecommons.org/ns#"
   xmlns:rdf="http://www.w3.org/1999/02/22-rdf-syntax-ns#"
   xmlns:svg="http://www.w3.org/2000/svg"
   xmlns="http://www.w3.org/2000/svg"
   xmlns:sodipodi="http://sodipodi.sourceforge.net/DTD/sodipodi-0.dtd"
   xmlns:inkscape="http://www.inkscape.org/namespaces/inkscape"
   version="1.1"
   x="0px"
   y="0px"
   viewBox="0 0 512 512"
   enable-background="new 0 0 100 100"
   xml:space="preserve"
   id="svg2"
   inkscape:version="0.91 r13725"
   width="100%"
   height="100%"
   sodipodi:docname="square_stop.svg"><metadata
     id="metadata16"><rdf:RDF><cc:Work
         rdf:about=""><dc:format>image/svg+xml</dc:format><dc:type
           rdf:resource="http://purl.org/dc/dcmitype/StillImage" /><dc:title /></cc:Work></rdf:RDF></metadata><defs
     id="defs14" /><sodipodi:namedview
     pagecolor="#ffffff"
     bordercolor="#666666"
     borderopacity="1"
     objecttolerance="10"
     gridtolerance="10"
     guidetolerance="10"
     inkscape:pageopacity="0"
     inkscape:pageshadow="2"
     inkscape:window-width="1366"
     inkscape:window-height="706"
     id="namedview12"
     showgrid="false"
     inkscape:object-paths="true"
     inkscape:snap-intersection-paths="true"
     inkscape:object-nodes="true"
     inkscape:snap-smooth-nodes="true"
     inkscape:zoom="0.6675088"
     inkscape:cx="-71.865702"
     inkscape:cy="308.76261"
     inkscape:window-x="-8"
     inkscape:window-y="-8"
     inkscape:window-maximized="1"
     inkscape:current-layer="g3976" /><g
     id="g3976"
     transform="translate(90.79892,259.71611)"><g
       id="g4156"><path
         sodipodi:nodetypes="scsccssss"
         inkscape:connector-curvature="0"
         id="path6"
         d="m -23.353111,-251.3162 c -32.46961,0 -59.052899,26.44076 -59.045901,59.00541 l 0,377.11513 c 0,32.56999 26.571602,59.07964 59.045901,59.07964 120.399408,-1.02179 191.787501,0 377.108381,0 32.47476,0 59.0459,-26.5159 59.0459,-59.07964 l 0,-377.11513 c 0,-32.56522 -26.595,-59.00541 -59.0459,-59.00541 z"
         style="color:#000000;font-style:normal;font-variant:normal;font-weight:normal;font-stretch:normal;font-size:medium;line-height:normal;font-family:Sans;-inkscape-font-specification:Sans;text-indent:0;text-align:start;text-decoration:none;text-decoration-line:none;letter-spacing:normal;word-spacing:normal;text-transform:none;direction:ltr;block-progression:tb;writing-mode:lr-tb;baseline-shift:baseline;text-anchor:start;display:inline;overflow:visible;visibility:visible;fill:#000000;fill-opacity:1;fill-rule:nonzero;stroke:#000000;stroke-width:4.79981232;stroke-miterlimit:4;stroke-dasharray:none;marker:none;enable-background:accumulate" /><path
         style="fill:#ffffff;stroke:#ffffff;stroke-width:4.57489395;stroke-miterlimit:4;stroke-dasharray:none"
         inkscape:connector-curvature="0"
         d="M 58.842652,178.99644 -47.511474,-3.7136518 58.842652,-186.42825 l 212.712758,0 106.35865,182.7145982 -106.35865,182.7100918 -212.712758,0 z M 266.31774,170.00532 367.43875,-3.7091451 266.31774,-177.43713 l -202.232884,0 L -37.03614,-3.7091451 64.084856,170.00532 l 202.232884,0 0,0 z"
         id="path4243" /><g
         id="text4252"
         style="font-style:normal;font-variant:normal;font-weight:bold;font-stretch:normal;font-size:109.7974472px;line-height:125%;font-family:Arial;-inkscape-font-specification:'Arial Bold';letter-spacing:0px;word-spacing:0px;fill:#ffffff;fill-opacity:1;stroke:none"
         transform="scale(0.99990702,1.000093)"><path
           id="path4148"
           style="font-weight:bold;font-size:109.7974472px;-inkscape-font-specification:'Arial Bold';fill:#ffffff"
           d="m 20.788356,8.5908549 15.440266,-1.501137 q 1.393913,7.7737451 5.629264,11.4193631 4.288963,3.645619 11.526588,3.645619 7.666521,0 11.526587,-3.216722 3.913679,-3.270335 3.913679,-7.612909 0,-2.7878261 -1.661973,-4.7178594 Q 65.554406,4.6235643 61.479891,3.1760394 58.692065,2.2110227 48.773839,-0.25513085 36.014174,-3.4182409 30.867419,-8.0288759 23.629794,-14.515932 23.629794,-23.844426 q 0,-6.004548 3.377559,-11.204915 3.43117,-5.25398 9.811002,-7.988194 6.433444,-2.734213 15.493878,-2.734213 14.796922,0 22.248994,6.487056 7.505685,6.487056 7.880969,17.316687 l -15.869162,0.696957 q -1.018628,-6.05816 -4.396187,-8.68515 -3.323946,-2.680602 -10.02545,-2.680602 -6.915953,0 -10.829631,2.841438 -2.519766,1.822809 -2.519766,4.878695 0,2.787826 2.35893,4.771471 3.002274,2.519766 14.582473,5.25398 11.5802,2.734213 17.102239,5.6828753 5.575652,2.8950499 8.68515,7.9881932 3.16311,5.0395313 3.16311,12.4916045 0,6.755116 -3.752843,12.65244 -3.752842,5.897324 -10.615182,8.792374 -6.862341,2.841437 -17.102239,2.841437 -14.904146,0 -22.892339,-6.86234 -7.988194,-6.915953 -9.542943,-20.1045131 z" /><path
           id="path4150"
           style="font-weight:bold;font-size:109.7974472px;-inkscape-font-specification:'Arial Bold';fill:#ffffff"
           d="m 115.84249,34.163795 0,-65.299458 -23.321232,0 0,-13.295784 62.458022,0 0,13.295784 -23.26762,0 0,65.299458 -15.86917,0 z" /><path
           id="path4152"
           style="font-weight:bold;font-size:109.7974472px;-inkscape-font-specification:'Arial Bold';fill:#ffffff"
           d="m 159.91158,-4.6513177 q 0,-12.0090953 3.59201,-20.1581253 2.6806,-6.004548 7.29124,-10.776019 4.66424,-4.771471 10.18628,-7.076788 7.34485,-3.109498 16.94141,-3.109498 17.37029,0 27.77103,10.776019 10.45435,10.776019 10.45435,29.9691271 0,19.0322719 -10.34713,29.8082909 -10.34712,10.722407 -27.66381,10.722407 -17.53113,0 -27.87825,-10.668795 -10.34713,-10.722407 -10.34713,-29.4866187 z m 16.35167,-0.5361203 q 0,13.3493966 6.16539,20.265349 6.16538,6.862341 15.65471,6.862341 9.48933,0 15.54749,-6.808729 6.11177,-6.8623403 6.11177,-20.5334092 0,-13.5102328 -5.95093,-20.1581248 -5.89733,-6.647893 -15.70833,-6.647893 -9.811,0 -15.81555,6.755117 -6.00455,6.701504 -6.00455,20.265349 z" /><path
           id="path4154"
           style="font-weight:bold;font-size:109.7974472px;-inkscape-font-specification:'Arial Bold';fill:#ffffff"
           d="m 248.47866,34.163795 0,-78.595242 25.46572,0 q 14.47525,0 18.87143,1.179464 6.75512,1.769197 11.31214,7.720133 4.55703,5.897324 4.55703,15.27943 0,7.237625 -2.62699,12.1699321 -2.62699,4.9323072 -6.70151,7.77374502 -4.0209,2.78782578 -8.20264,3.69923038 -5.68287,1.1258527 -16.45889,1.1258527 l -10.34713,0 0,29.6474548 -15.86916,0 z m 15.86916,-65.299458 0,22.3026066 8.68515,0 q 9.38211,0 12.54522,-1.2330766 3.16311,-1.233077 4.93231,-3.860067 1.82281,-2.626989 1.82281,-6.111772 0,-4.288962 -2.51977,-7.076788 -2.51976,-2.787826 -6.37983,-3.484783 -2.84144,-0.53612 -11.41936,-0.53612 l -7.66653,0 z" /></g></g></g></svg>
